<mxfile host="app.diagrams.net" modified="2024-03-24T11:26:58.840Z" agent="Mozilla/5.0 (Windows NT 10.0; Win64; x64) AppleWebKit/537.36 (KHTML, like Gecko) Chrome/120.0.0.0 YaBrowser/24.1.0.0 Safari/537.36" etag="ghDRTg2n-Z1Cq7mTKj1h" version="24.1.0" type="github">
  <diagram name="Страница — 1" id="RJ2conK7CAWFXqOHON7l">
    <mxGraphModel dx="1588" dy="914" grid="1" gridSize="10" guides="1" tooltips="1" connect="1" arrows="1" fold="1" page="1" pageScale="1" pageWidth="827" pageHeight="1169" math="0" shadow="0">
      <root>
        <mxCell id="0" />
        <mxCell id="1" parent="0" />
        <mxCell id="csdSFFo0uUrRS4vlLX9V-2" value="&lt;h1&gt;&lt;font color=&quot;#66b2ff&quot;&gt;Salient.studio&lt;/font&gt;&lt;/h1&gt;" style="rounded=0;whiteSpace=wrap;html=1;strokeColor=default;" vertex="1" parent="1">
          <mxGeometry x="160" y="40" width="520" height="80" as="geometry" />
        </mxCell>
        <mxCell id="csdSFFo0uUrRS4vlLX9V-5" style="edgeStyle=orthogonalEdgeStyle;rounded=0;orthogonalLoop=1;jettySize=auto;html=1;entryX=0;entryY=0.5;entryDx=0;entryDy=0;" edge="1" parent="1" source="csdSFFo0uUrRS4vlLX9V-3" target="csdSFFo0uUrRS4vlLX9V-6">
          <mxGeometry relative="1" as="geometry">
            <mxPoint x="440.0000000000002" y="190" as="targetPoint" />
          </mxGeometry>
        </mxCell>
        <mxCell id="csdSFFo0uUrRS4vlLX9V-8" style="edgeStyle=orthogonalEdgeStyle;rounded=0;orthogonalLoop=1;jettySize=auto;html=1;entryX=0;entryY=0.5;entryDx=0;entryDy=0;" edge="1" parent="1" source="csdSFFo0uUrRS4vlLX9V-3" target="csdSFFo0uUrRS4vlLX9V-7">
          <mxGeometry relative="1" as="geometry" />
        </mxCell>
        <mxCell id="csdSFFo0uUrRS4vlLX9V-3" value="&lt;h2&gt;Цена: 230к&lt;/h2&gt;" style="rounded=0;whiteSpace=wrap;html=1;" vertex="1" parent="1">
          <mxGeometry x="160" y="160" width="160" height="60" as="geometry" />
        </mxCell>
        <mxCell id="csdSFFo0uUrRS4vlLX9V-6" value="&lt;h3&gt;Вёрстка: 180к&lt;/h3&gt;" style="rounded=0;whiteSpace=wrap;html=1;" vertex="1" parent="1">
          <mxGeometry x="520" y="160" width="160" height="60" as="geometry" />
        </mxCell>
        <mxCell id="csdSFFo0uUrRS4vlLX9V-7" value="&lt;h3&gt;Обучение: 50к&lt;/h3&gt;" style="rounded=0;whiteSpace=wrap;html=1;" vertex="1" parent="1">
          <mxGeometry x="520" y="260" width="160" height="60" as="geometry" />
        </mxCell>
        <mxCell id="csdSFFo0uUrRS4vlLX9V-11" style="edgeStyle=orthogonalEdgeStyle;rounded=0;orthogonalLoop=1;jettySize=auto;html=1;entryX=0.5;entryY=0;entryDx=0;entryDy=0;" edge="1" parent="1" source="csdSFFo0uUrRS4vlLX9V-9" target="csdSFFo0uUrRS4vlLX9V-10">
          <mxGeometry relative="1" as="geometry" />
        </mxCell>
        <mxCell id="csdSFFo0uUrRS4vlLX9V-9" value="&lt;h1&gt;Обучение&lt;/h1&gt;" style="rounded=0;whiteSpace=wrap;html=1;" vertex="1" parent="1">
          <mxGeometry x="160" y="360" width="520" height="80" as="geometry" />
        </mxCell>
        <mxCell id="csdSFFo0uUrRS4vlLX9V-10" value="&lt;h3 style=&quot;font-size: 16px;&quot;&gt;&lt;ol&gt;&lt;li&gt;Вводный урок&lt;/li&gt;&lt;li&gt;HTML - базовый курс&lt;/li&gt;&lt;li&gt;CSS - Grid/Flex; position; pseudoclasses and more&lt;/li&gt;&lt;li&gt;SCSS/JS/Open Server&lt;/li&gt;&lt;li&gt;Практика - анализ макета&lt;/li&gt;&lt;li&gt;Подготовка к вёрстке&amp;nbsp;&lt;/li&gt;&lt;li&gt;Сдача проекта&lt;/li&gt;&lt;li&gt;Фишки - хостинг, сайты для верстальщиков&lt;/li&gt;&lt;/ol&gt;&lt;/h3&gt;" style="rounded=0;whiteSpace=wrap;html=1;align=left;" vertex="1" parent="1">
          <mxGeometry x="160" y="480" width="520" height="240" as="geometry" />
        </mxCell>
      </root>
    </mxGraphModel>
  </diagram>
</mxfile>
